<svg xmlns="http://www.w3.org/2000/svg" viewBox="0 0 45 30"><defs><g/><clipPath id="3048677b31"><path d="M 4.953125 12.242188 L 13.203125 12.242188 L 13.203125 20.492188 L 4.953125 20.492188 Z M 4.953125 12.242188 " clip-rule="nonzero"/></clipPath></defs><g fill="currentColor"><g transform="translate(2.197422, 24.974612)"><g><path d="M 25.703125 -1.390625 C 25.703125 0.484375 26.460938 1.421875 27.984375 1.421875 C 29.398438 1.421875 31.148438 0.582031 33.234375 -1.09375 C 35.523438 -2.90625 37.09375 -4.816406 37.9375 -6.828125 C 38.90625 -9.085938 39.390625 -11.015625 39.390625 -12.609375 C 39.390625 -14.210938 39.066406 -15.414062 38.421875 -16.21875 C 37.785156 -17.03125 36.90625 -17.4375 35.78125 -17.4375 C 35.53125 -17.4375 35.265625 -17.414062 34.984375 -17.375 C 34.515625 -17.257812 34.164062 -17.203125 33.9375 -17.203125 C 33.707031 -17.203125 33.59375 -17.257812 33.59375 -17.375 C 33.59375 -17.550781 33.773438 -17.71875 34.140625 -17.875 C 34.503906 -18.03125 34.78125 -18.109375 34.96875 -18.109375 C 35.15625 -18.109375 35.304688 -18.109375 35.421875 -18.109375 C 35.546875 -18.109375 35.6875 -18.109375 35.84375 -18.109375 C 36.96875 -18.109375 37.992188 -17.664062 38.921875 -16.78125 C 39.859375 -15.894531 40.46875 -14.59375 40.75 -12.875 C 40.800781 -12.46875 40.828125 -12.046875 40.828125 -11.609375 C 40.828125 -10.148438 40.484375 -8.492188 39.796875 -6.640625 C 38.835938 -4.203125 37.179688 -2.125 34.828125 -0.40625 C 32.472656 1.300781 30.3125 2.15625 28.34375 2.15625 C 26.289062 2.15625 25.03125 1.210938 24.5625 -0.671875 C 24.414062 -1.171875 24.34375 -1.84375 24.34375 -2.6875 C 24.34375 -3.53125 24.550781 -4.632812 24.96875 -6 C 23.90625 -4.226562 22.523438 -2.304688 20.828125 -0.234375 C 19.898438 0.867188 18.957031 1.785156 18 2.515625 C 16.96875 3.273438 16.097656 3.65625 15.390625 3.65625 C 13.992188 3.65625 13.296875 2.8125 13.296875 1.125 C 13.296875 -0.863281 14.585938 -4.921875 17.171875 -11.046875 C 18.785156 -14.953125 19.59375 -17.878906 19.59375 -19.828125 C 19.59375 -21.085938 19.210938 -21.957031 18.453125 -22.4375 C 17.691406 -22.925781 16.789062 -23.171875 15.75 -23.171875 C 15.300781 -23.171875 14.828125 -23.117188 14.328125 -23.015625 C 10.847656 -22.304688 7.753906 -20.425781 5.046875 -17.375 C 3.710938 -15.832031 2.789062 -14.359375 2.28125 -12.953125 C 1.769531 -11.546875 1.476562 -10.503906 1.40625 -9.828125 C 1.332031 -9.148438 1.296875 -8.585938 1.296875 -8.140625 C 1.296875 -7.691406 1.378906 -7.179688 1.546875 -6.609375 C 1.710938 -6.046875 2.003906 -5.515625 2.421875 -5.015625 C 3.191406 -4.128906 4.265625 -3.6875 5.640625 -3.6875 C 7.929688 -3.6875 9.742188 -4.878906 11.078125 -7.265625 C 11.765625 -8.484375 12.109375 -9.585938 12.109375 -10.578125 C 12.109375 -12.191406 11.390625 -13 9.953125 -13 C 9.722656 -13 9.429688 -12.96875 9.078125 -12.90625 C 8.722656 -12.851562 8.550781 -12.894531 8.5625 -13.03125 C 8.582031 -13.164062 8.847656 -13.3125 9.359375 -13.46875 C 9.878906 -13.625 10.394531 -13.703125 10.90625 -13.703125 C 11.925781 -13.703125 12.675781 -13.3125 13.15625 -12.53125 C 13.445312 -12.039062 13.59375 -11.457031 13.59375 -10.78125 C 13.59375 -10.113281 13.40625 -9.335938 13.03125 -8.453125 C 12.03125 -6.148438 10.226562 -4.457031 7.625 -3.375 C 6.9375 -3.070312 6.296875 -2.921875 5.703125 -2.921875 C 3.773438 -2.921875 2.238281 -3.613281 1.09375 -5 C 0.289062 -5.9375 -0.21875 -7.15625 -0.4375 -8.65625 C -0.476562 -8.945312 -0.5 -9.253906 -0.5 -9.578125 C -0.5 -10.835938 -0.179688 -12.195312 0.453125 -13.65625 C 1.097656 -15.125 1.972656 -16.488281 3.078125 -17.75 C 4.179688 -19.019531 5.378906 -20.078125 6.671875 -20.921875 C 7.972656 -21.765625 9.34375 -22.472656 10.78125 -23.046875 C 12.28125 -23.617188 13.671875 -23.90625 14.953125 -23.90625 C 16.234375 -23.90625 17.394531 -23.707031 18.4375 -23.3125 C 20.332031 -22.488281 21.28125 -20.90625 21.28125 -18.5625 C 21.28125 -16.625 20.617188 -14.160156 19.296875 -11.171875 C 18.390625 -9.140625 17.523438 -6.960938 16.703125 -4.640625 C 15.515625 -1.328125 14.921875 0.828125 14.921875 1.828125 C 14.921875 2.535156 15.164062 2.890625 15.65625 2.890625 C 15.914062 2.890625 16.222656 2.773438 16.578125 2.546875 C 17.640625 1.910156 18.800781 0.71875 20.0625 -1.03125 C 21.320312 -2.78125 22.628906 -4.816406 23.984375 -7.140625 C 25.347656 -9.472656 26.316406 -11.03125 26.890625 -11.8125 C 27.460938 -12.601562 27.953125 -13 28.359375 -13 C 28.460938 -13 28.5625 -12.976562 28.65625 -12.9375 C 28.914062 -12.800781 29.046875 -12.535156 29.046875 -12.140625 C 29.046875 -11.742188 28.988281 -11.390625 28.875 -11.078125 C 28.769531 -10.765625 28.265625 -9.507812 27.359375 -7.3125 C 26.453125 -5.113281 25.945312 -3.664062 25.84375 -2.96875 C 25.75 -2.269531 25.703125 -1.742188 25.703125 -1.390625 Z M 25.703125 -1.390625 "/></g></g></g><g clip-path="url(#3048677b31)"><path fill="currentColor" d="M 9.078125 12.242188 C 8.675781 15.640625 8.351562 15.964844 4.953125 16.367188 C 4.960938 16.367188 4.964844 16.367188 4.972656 16.371094 C 8.351562 16.769531 8.675781 17.101562 9.078125 20.492188 C 9.480469 17.09375 9.804688 16.769531 13.203125 16.367188 C 9.804688 15.964844 9.480469 15.640625 9.078125 12.242188 Z M 9.078125 12.242188 " fill-opacity="1" fill-rule="nonzero"/></g><g fill="currentColor" fill-opacity="1"><g transform="translate(3.082485, 24.974612)"><g><path d="M 25.703125 -1.390625 C 25.703125 0.484375 26.460938 1.421875 27.984375 1.421875 C 29.398438 1.421875 31.148438 0.582031 33.234375 -1.09375 C 35.523438 -2.90625 37.09375 -4.816406 37.9375 -6.828125 C 38.90625 -9.085938 39.390625 -11.015625 39.390625 -12.609375 C 39.390625 -14.210938 39.066406 -15.414062 38.421875 -16.21875 C 37.785156 -17.03125 36.90625 -17.4375 35.78125 -17.4375 C 35.53125 -17.4375 35.265625 -17.414062 34.984375 -17.375 C 34.515625 -17.257812 34.164062 -17.203125 33.9375 -17.203125 C 33.707031 -17.203125 33.59375 -17.257812 33.59375 -17.375 C 33.59375 -17.550781 33.773438 -17.71875 34.140625 -17.875 C 34.503906 -18.03125 34.78125 -18.109375 34.96875 -18.109375 C 35.15625 -18.109375 35.304688 -18.109375 35.421875 -18.109375 C 35.546875 -18.109375 35.6875 -18.109375 35.84375 -18.109375 C 36.96875 -18.109375 37.992188 -17.664062 38.921875 -16.78125 C 39.859375 -15.894531 40.46875 -14.59375 40.75 -12.875 C 40.800781 -12.46875 40.828125 -12.046875 40.828125 -11.609375 C 40.828125 -10.148438 40.484375 -8.492188 39.796875 -6.640625 C 38.835938 -4.203125 37.179688 -2.125 34.828125 -0.40625 C 32.472656 1.300781 30.3125 2.15625 28.34375 2.15625 C 26.289062 2.15625 25.03125 1.210938 24.5625 -0.671875 C 24.414062 -1.171875 24.34375 -1.84375 24.34375 -2.6875 C 24.34375 -3.53125 24.550781 -4.632812 24.96875 -6 C 23.90625 -4.226562 22.523438 -2.304688 20.828125 -0.234375 C 19.898438 0.867188 18.957031 1.785156 18 2.515625 C 16.96875 3.273438 16.097656 3.65625 15.390625 3.65625 C 13.992188 3.65625 13.296875 2.8125 13.296875 1.125 C 13.296875 -0.863281 14.585938 -4.921875 17.171875 -11.046875 C 18.785156 -14.953125 19.59375 -17.878906 19.59375 -19.828125 C 19.59375 -21.085938 19.210938 -21.957031 18.453125 -22.4375 C 17.691406 -22.925781 16.789062 -23.171875 15.75 -23.171875 C 15.300781 -23.171875 14.828125 -23.117188 14.328125 -23.015625 C 10.847656 -22.304688 7.753906 -20.425781 5.046875 -17.375 C 3.710938 -15.832031 2.789062 -14.359375 2.28125 -12.953125 C 1.769531 -11.546875 1.476562 -10.503906 1.40625 -9.828125 C 1.332031 -9.148438 1.296875 -8.585938 1.296875 -8.140625 C 1.296875 -7.691406 1.378906 -7.179688 1.546875 -6.609375 C 1.710938 -6.046875 2.003906 -5.515625 2.421875 -5.015625 C 3.191406 -4.128906 4.265625 -3.6875 5.640625 -3.6875 C 7.929688 -3.6875 9.742188 -4.878906 11.078125 -7.265625 C 11.765625 -8.484375 12.109375 -9.585938 12.109375 -10.578125 C 12.109375 -12.191406 11.390625 -13 9.953125 -13 C 9.722656 -13 9.429688 -12.96875 9.078125 -12.90625 C 8.722656 -12.851562 8.550781 -12.894531 8.5625 -13.03125 C 8.582031 -13.164062 8.847656 -13.3125 9.359375 -13.46875 C 9.878906 -13.625 10.394531 -13.703125 10.90625 -13.703125 C 11.925781 -13.703125 12.675781 -13.3125 13.15625 -12.53125 C 13.445312 -12.039062 13.59375 -11.457031 13.59375 -10.78125 C 13.59375 -10.113281 13.40625 -9.335938 13.03125 -8.453125 C 12.03125 -6.148438 10.226562 -4.457031 7.625 -3.375 C 6.9375 -3.070312 6.296875 -2.921875 5.703125 -2.921875 C 3.773438 -2.921875 2.238281 -3.613281 1.09375 -5 C 0.289062 -5.9375 -0.21875 -7.15625 -0.4375 -8.65625 C -0.476562 -8.945312 -0.5 -9.253906 -0.5 -9.578125 C -0.5 -10.835938 -0.179688 -12.195312 0.453125 -13.65625 C 1.097656 -15.125 1.972656 -16.488281 3.078125 -17.75 C 4.179688 -19.019531 5.378906 -20.078125 6.671875 -20.921875 C 7.972656 -21.765625 9.34375 -22.472656 10.78125 -23.046875 C 12.28125 -23.617188 13.671875 -23.90625 14.953125 -23.90625 C 16.234375 -23.90625 17.394531 -23.707031 18.4375 -23.3125 C 20.332031 -22.488281 21.28125 -20.90625 21.28125 -18.5625 C 21.28125 -16.625 20.617188 -14.160156 19.296875 -11.171875 C 18.390625 -9.140625 17.523438 -6.960938 16.703125 -4.640625 C 15.515625 -1.328125 14.921875 0.828125 14.921875 1.828125 C 14.921875 2.535156 15.164062 2.890625 15.65625 2.890625 C 15.914062 2.890625 16.222656 2.773438 16.578125 2.546875 C 17.640625 1.910156 18.800781 0.71875 20.0625 -1.03125 C 21.320312 -2.78125 22.628906 -4.816406 23.984375 -7.140625 C 25.347656 -9.472656 26.316406 -11.03125 26.890625 -11.8125 C 27.460938 -12.601562 27.953125 -13 28.359375 -13 C 28.460938 -13 28.5625 -12.976562 28.65625 -12.9375 C 28.914062 -12.800781 29.046875 -12.535156 29.046875 -12.140625 C 29.046875 -11.742188 28.988281 -11.390625 28.875 -11.078125 C 28.769531 -10.765625 28.265625 -9.507812 27.359375 -7.3125 C 26.453125 -5.113281 25.945312 -3.664062 25.84375 -2.96875 C 25.75 -2.269531 25.703125 -1.742188 25.703125 -1.390625 Z M 25.703125 -1.390625 "/></g></g></g></svg>